<?xml version="1.0" encoding="UTF-8" standalone="no"?>
<!DOCTYPE svg PUBLIC "-//W3C//DTD SVG 1.1//EN" "http://www.w3.org/Graphics/SVG/1.1/DTD/svg11.dtd">
<svg width="100%" height="100%" viewBox="0 0 100 104" version="1.1" xmlns="http://www.w3.org/2000/svg" xmlns:xlink="http://www.w3.org/1999/xlink" xml:space="preserve" xmlns:serif="http://www.serif.com/" style="fill-rule:evenodd;clip-rule:evenodd;stroke-linejoin:round;stroke-miterlimit:2;">
    <g id="layer1" transform="matrix(1,0,0,1,-83.0458,-98.6324)">
        <path id="text1" d="M99.233,141.691L99.657,142.115C98.91,143.054 98.253,143.737 97.688,144.166C97.132,144.594 96.722,144.808 96.458,144.808C96.239,144.808 96.13,144.612 96.13,144.22C96.13,143.245 96.772,141.741 98.057,139.709C99.142,137.949 99.684,136.97 99.684,136.769C99.684,136.596 99.612,136.509 99.466,136.509C99.21,136.509 98.568,137.084 97.538,138.232C96.508,139.38 95.237,141.003 93.724,143.099C92.01,145.433 90.834,147.1 90.196,148.103C91.408,148.222 92.402,148.377 93.177,148.568C93.96,148.75 95.091,149.051 96.567,149.47C98.053,149.89 99.147,150.136 99.849,150.209C98.992,151.184 98.399,151.845 98.071,152.191C97.752,152.546 97.506,152.761 97.333,152.834C97.059,152.952 96.654,152.957 96.116,152.847C95.578,152.747 94.726,152.546 93.559,152.246C92.393,151.945 91.299,151.694 90.278,151.494C89.266,151.293 88.341,151.193 87.503,151.193C87.029,151.193 86.619,151.248 86.272,151.357C85.935,151.466 85.461,151.649 84.85,151.904C84.249,152.15 83.825,152.273 83.579,152.273C83.224,152.273 83.046,152.127 83.046,151.835C83.046,151.671 83.105,151.485 83.224,151.275C83.524,150.792 83.816,150.332 84.099,149.894C84.381,149.457 84.682,149.115 85.001,148.869C85.32,148.623 85.78,148.431 86.382,148.294C86.983,148.158 87.776,148.085 88.761,148.076C90.246,145.797 91.632,143.778 92.917,142.019C94.202,140.251 95.369,138.761 96.417,137.548C97.474,136.336 98.399,135.42 99.192,134.8C99.985,134.171 100.614,133.857 101.079,133.857C101.407,133.857 101.662,133.948 101.845,134.13C102.027,134.313 102.118,134.568 102.118,134.896C102.118,135.99 101.156,138.255 99.233,141.691L99.233,141.691ZM103.581,148.24L103.581,148.582C103.581,149.119 103.713,149.539 103.977,149.839C104.242,150.14 104.588,150.291 105.016,150.291C105.463,150.291 105.923,150.186 106.397,149.976C106.88,149.767 107.359,149.489 107.833,149.142C108.307,148.796 108.886,148.331 109.569,147.748L109.569,148.582C108.539,149.821 107.573,150.774 106.671,151.439C105.768,152.095 104.852,152.423 103.923,152.423C103.112,152.423 102.469,152.109 101.995,151.48C101.521,150.851 101.284,149.99 101.284,148.896C101.284,147.939 101.507,147.073 101.954,146.298C102.401,145.515 103.13,144.69 104.141,143.824C104.834,143.231 105.522,142.785 106.206,142.484C106.89,142.183 107.5,142.033 108.038,142.033C108.466,142.033 108.804,142.133 109.05,142.334C109.305,142.525 109.432,142.817 109.432,143.209C109.432,143.783 109.218,144.357 108.79,144.931C108.362,145.496 107.705,146.061 106.821,146.627C105.946,147.183 104.866,147.72 103.581,148.24ZM103.718,147.351C104.538,147.032 105.24,146.636 105.823,146.162C106.406,145.688 106.835,145.237 107.108,144.808C107.391,144.371 107.532,144.052 107.532,143.851C107.532,143.642 107.436,143.537 107.245,143.537C107.081,143.537 106.812,143.642 106.438,143.851C106.074,144.061 105.7,144.334 105.317,144.671C104.944,145.009 104.606,145.405 104.306,145.861C104.005,146.317 103.809,146.813 103.718,147.351ZM120.438,148.664L115.899,152.396C114.623,154.602 113.461,156.247 112.413,157.332C111.365,158.425 110.585,158.972 110.075,158.972C109.802,158.972 109.665,158.804 109.665,158.466C109.665,157.81 109.998,156.972 110.663,155.951C110.927,155.55 111.228,155.158 111.565,154.775C111.912,154.392 112.235,154.059 112.536,153.777C112.846,153.503 113.251,153.157 113.753,152.738C114.254,152.328 114.596,152.045 114.778,151.89C115.69,150.031 116.346,148.609 116.747,147.625C115.89,148.536 115.143,149.283 114.505,149.867C113.867,150.45 113.279,150.901 112.741,151.22C112.212,151.53 111.734,151.685 111.306,151.685C110.841,151.685 110.412,151.316 110.02,150.578C109.628,149.83 109.432,149.065 109.432,148.281C109.432,147.916 109.515,147.533 109.679,147.132C109.852,146.731 110.116,146.303 110.472,145.847C110.836,145.392 111.296,144.927 111.852,144.453C112.408,143.97 113.06,143.5 113.808,143.044C115.22,142.16 116.319,141.718 117.102,141.718C117.686,141.718 117.977,141.933 117.977,142.361C117.977,142.953 117.344,143.532 116.077,144.097C115.302,144.434 114.532,144.881 113.766,145.437C113.01,145.993 112.395,146.586 111.921,147.214C111.456,147.834 111.224,148.395 111.224,148.896C111.224,149.142 111.283,149.338 111.401,149.484C111.52,149.63 111.675,149.703 111.866,149.703C112.185,149.703 112.55,149.557 112.96,149.265C113.37,148.974 113.976,148.459 114.778,147.72C115.143,147.383 115.626,146.841 116.227,146.093C116.838,145.337 117.339,144.763 117.731,144.371C118.132,143.97 118.492,143.769 118.811,143.769C118.994,143.769 119.14,143.828 119.249,143.947C119.367,144.056 119.427,144.22 119.427,144.439C119.427,144.858 119.258,145.469 118.921,146.271C118.593,147.064 117.996,148.367 117.13,150.181L120.438,147.775L120.438,148.664ZM129.134,147.72L129.134,148.636C128.532,149.183 128.049,149.548 127.684,149.73C127.32,149.912 126.796,149.985 126.112,149.949C124.927,151.352 123.884,152.054 122.981,152.054C122.471,152.054 122.006,151.886 121.587,151.548C121.168,151.211 120.83,150.751 120.575,150.168C120.329,149.584 120.206,148.933 120.206,148.212C120.206,147.629 120.397,146.982 120.78,146.271C121.172,145.56 121.673,144.899 122.284,144.289C122.904,143.669 123.565,143.172 124.266,142.798C124.968,142.416 125.62,142.224 126.222,142.224C126.65,142.224 126.987,142.293 127.233,142.429C127.479,142.557 127.602,142.739 127.602,142.976C127.602,143.158 127.498,143.368 127.288,143.605C127.634,143.678 127.871,143.801 127.999,143.974C128.126,144.138 128.19,144.444 128.19,144.89C128.19,145.328 128.085,145.879 127.876,146.545C127.675,147.21 127.397,147.834 127.042,148.418L127.288,148.664L127.493,148.664C127.648,148.664 127.798,148.627 127.944,148.554C128.099,148.472 128.236,148.39 128.354,148.308C128.473,148.217 128.733,148.021 129.134,147.72L129.134,147.72ZM126.317,144.125C125.561,144.58 124.914,144.995 124.376,145.369C123.838,145.733 123.382,146.107 123.009,146.49C122.635,146.864 122.384,147.242 122.257,147.625C122.029,148.645 121.915,149.197 121.915,149.279C121.915,149.88 122.334,150.181 123.173,150.181C123.565,150.181 124.221,149.844 125.141,149.169C124.987,148.741 124.909,148.331 124.909,147.939C124.909,147.365 125.028,146.781 125.265,146.189C125.502,145.587 125.852,144.899 126.317,144.125L126.317,144.125ZM136.585,142.812L135.888,143.632C136.699,143.705 137.423,143.806 138.061,143.933C138.699,144.052 139.287,144.188 139.825,144.343C140.372,144.489 140.85,144.644 141.261,144.808C142.701,145.41 143.421,146.248 143.421,147.324C143.421,147.98 143.12,148.623 142.518,149.252C141.917,149.88 141.133,150.441 140.167,150.933C139.21,151.425 138.221,151.808 137.2,152.082C136.188,152.364 135.268,152.505 134.438,152.505C133.053,152.505 131.973,152.25 131.198,151.74C130.423,151.22 130.036,150.514 130.036,149.621C130.036,149.001 130.273,148.272 130.747,147.433C131.221,146.595 131.955,145.551 132.948,144.302C132.201,144.266 131.672,144.156 131.362,143.974C131.052,143.783 130.897,143.518 130.897,143.181C130.897,142.972 130.957,142.812 131.075,142.703C131.194,142.593 131.353,142.516 131.554,142.47C131.754,142.416 132.137,142.352 132.702,142.279C133.276,142.206 134.01,142.115 134.903,142.005C135.897,140.784 136.785,139.868 137.569,139.257C138.362,138.638 139.21,138.282 140.112,138.191C140.185,138.182 140.263,138.177 140.345,138.177C140.436,138.177 140.481,138.2 140.481,138.246C140.481,138.3 140.376,138.446 140.167,138.683C139.966,138.92 139.634,139.299 139.169,139.818C138.713,140.338 138.171,140.953 137.542,141.664C139.255,141.436 140.654,141.176 141.739,140.884C142.833,140.584 143.658,140.228 144.214,139.818C144.77,139.408 145.048,138.952 145.048,138.451C145.048,137.84 144.751,137.398 144.159,137.125C143.567,136.851 142.66,136.715 141.438,136.715C140.764,136.715 139.989,136.783 139.114,136.92C138.248,137.056 137.46,137.211 136.749,137.384C136.047,137.558 135.418,137.744 134.862,137.945C134.315,138.136 134.042,138.278 134.042,138.369C134.042,138.396 134.069,138.424 134.124,138.451C134.571,138.615 134.794,138.752 134.794,138.861C134.794,139.007 134.11,139.289 132.743,139.709C131.376,140.119 130.455,140.324 129.981,140.324C129.644,140.324 129.475,140.155 129.475,139.818C129.475,139.417 129.84,138.697 130.569,137.658C131.307,136.61 131.977,135.94 132.579,135.648C132.789,135.548 133.276,135.388 134.042,135.17C134.807,134.951 135.646,134.741 136.557,134.541C137.478,134.34 138.412,134.172 139.36,134.035C140.308,133.898 141.147,133.83 141.876,133.83C143.599,133.83 144.893,134.14 145.759,134.759C146.625,135.37 147.057,136.14 147.057,137.07C147.057,137.699 146.857,138.305 146.456,138.888C146.064,139.472 145.449,140.023 144.61,140.543C143.772,141.062 142.678,141.518 141.329,141.91C139.989,142.302 138.408,142.603 136.585,142.812L136.585,142.812ZM135.136,144.576C134.662,145.141 134.238,145.642 133.864,146.08C133.5,146.508 133.235,146.859 133.071,147.132C132.916,147.397 132.839,147.666 132.839,147.939C132.839,148.377 133.062,148.768 133.509,149.115C133.964,149.452 134.616,149.621 135.464,149.621C136.248,149.621 137.082,149.484 137.966,149.211C138.859,148.928 139.606,148.563 140.208,148.117C140.819,147.67 141.124,147.219 141.124,146.763C141.124,146.371 140.901,146.048 140.454,145.793C140.007,145.537 139.328,145.314 138.417,145.123C137.505,144.922 136.412,144.74 135.136,144.576L135.136,144.576ZM146.743,148.24L146.743,148.582C146.743,149.119 146.875,149.539 147.14,149.839C147.404,150.14 147.75,150.291 148.179,150.291C148.625,150.291 149.085,150.186 149.559,149.976C150.043,149.767 150.521,149.489 150.995,149.142C151.469,148.796 152.048,148.331 152.731,147.748L152.731,148.582C151.701,149.821 150.735,150.774 149.833,151.439C148.931,152.095 148.015,152.423 147.085,152.423C146.274,152.423 145.631,152.109 145.157,151.48C144.683,150.851 144.446,149.99 144.446,148.896C144.446,147.939 144.669,147.073 145.116,146.298C145.563,145.515 146.292,144.69 147.304,143.824C147.996,143.231 148.684,142.785 149.368,142.484C150.052,142.183 150.662,142.033 151.2,142.033C151.628,142.033 151.966,142.133 152.212,142.334C152.467,142.525 152.595,142.817 152.595,143.209C152.595,143.783 152.38,144.357 151.952,144.931C151.524,145.496 150.867,146.061 149.983,146.627C149.108,147.183 148.028,147.72 146.743,148.24ZM146.88,147.351C147.7,147.032 148.402,146.636 148.985,146.162C149.569,145.688 149.997,145.237 150.27,144.808C150.553,144.371 150.694,144.052 150.694,143.851C150.694,143.642 150.599,143.537 150.407,143.537C150.243,143.537 149.974,143.642 149.6,143.851C149.236,144.061 148.862,144.334 148.479,144.671C148.106,145.009 147.768,145.405 147.468,145.861C147.167,146.317 146.971,146.813 146.88,147.351ZM154.331,145.3C155.716,144.043 157.061,143.108 158.364,142.498C159.668,141.887 160.675,141.582 161.386,141.582C161.577,141.582 161.755,141.664 161.919,141.828C162.083,141.983 162.21,142.165 162.302,142.375C162.402,142.584 162.452,142.739 162.452,142.839C162.452,143.003 162.388,143.127 162.261,143.209C162.133,143.281 161.91,143.373 161.591,143.482C161.654,143.628 161.737,143.815 161.837,144.043C161.937,144.27 162.015,144.457 162.069,144.603C162.124,144.74 162.151,144.863 162.151,144.972C162.151,145.191 161.928,145.601 161.481,146.203C161.044,146.795 160.734,147.233 160.552,147.515C160.378,147.798 160.292,148.144 160.292,148.554C160.292,149.229 160.602,149.566 161.222,149.566C161.86,149.566 162.858,148.969 164.216,147.775L164.216,148.609C161.91,151.17 160.26,152.451 159.266,152.451C158.911,152.451 158.656,152.332 158.501,152.095C158.355,151.867 158.282,151.526 158.282,151.07C158.282,150.35 158.542,149.306 159.061,147.939C157.731,149.416 156.742,150.468 156.095,151.097C155.447,151.717 154.914,152.027 154.495,152.027C154.294,152.027 154.044,151.854 153.743,151.507C153.442,151.161 153.173,150.714 152.936,150.168C152.709,149.612 152.595,149.037 152.595,148.445C152.595,148.017 152.636,147.661 152.718,147.378C152.8,147.087 152.959,146.791 153.196,146.49C153.433,146.189 153.811,145.793 154.331,145.3L154.331,145.3ZM160.88,143.796C158.51,144.881 156.819,145.802 155.807,146.558C154.805,147.315 154.304,148.094 154.304,148.896C154.304,149.188 154.354,149.429 154.454,149.621C154.554,149.803 154.691,149.894 154.864,149.894C154.964,149.894 155.142,149.83 155.397,149.703C156.354,149.138 157.229,148.404 158.022,147.502C158.815,146.59 159.768,145.355 160.88,143.796L160.88,143.796ZM173.307,145.273C171.703,147.059 170.901,148.304 170.901,149.005C170.901,149.397 171.061,149.593 171.38,149.593C171.644,149.593 171.986,149.457 172.405,149.183C172.834,148.901 173.499,148.404 174.401,147.693L174.401,148.636C173.107,149.912 172.113,150.833 171.421,151.398C170.728,151.963 170.163,152.246 169.725,152.246C168.978,152.246 168.604,151.753 168.604,150.769C168.604,150.477 168.65,150.19 168.741,149.908C168.832,149.625 168.955,149.334 169.11,149.033C169.274,148.723 169.52,148.285 169.849,147.72C170.177,147.146 170.555,146.499 170.983,145.779C170.464,146.043 169.812,146.567 169.028,147.351C168.518,147.843 168.085,148.313 167.729,148.759C167.374,149.197 166.991,149.689 166.581,150.236C166.18,150.774 165.884,151.138 165.692,151.33C165.51,151.512 165.323,151.603 165.132,151.603C164.84,151.603 164.571,151.298 164.325,150.687C164.079,150.076 163.956,149.365 163.956,148.554C163.956,148.053 164.011,147.661 164.12,147.378C164.238,147.096 164.466,146.695 164.804,146.175C165.432,145.209 165.975,144.503 166.431,144.056C166.886,143.6 167.324,143.373 167.743,143.373C168.035,143.373 168.267,143.423 168.44,143.523C168.623,143.623 168.714,143.778 168.714,143.988C168.714,144.079 168.686,144.175 168.632,144.275C168.577,144.375 168.513,144.466 168.44,144.548C168.377,144.63 168.235,144.79 168.016,145.027C166.576,146.622 165.856,147.656 165.856,148.13C165.856,148.395 165.943,148.527 166.116,148.527C166.225,148.527 166.435,148.354 166.745,148.007C167.064,147.652 167.47,147.192 167.962,146.627C168.463,146.052 169.051,145.455 169.725,144.836C170.409,144.216 171.184,143.619 172.05,143.044C172.533,142.707 172.934,142.539 173.253,142.539C173.399,142.539 173.54,142.739 173.677,143.14C173.822,143.541 173.895,143.947 173.895,144.357C173.895,144.558 173.699,144.863 173.308,145.273L173.307,145.273ZM174.155,148.951L174.155,147.939C174.656,147.41 175.171,146.672 175.7,145.724C175.19,145.651 174.934,145.446 174.934,145.109C174.934,144.826 175.103,144.462 175.44,144.015C175.787,143.569 176.188,143.168 176.643,142.812C177.108,142.457 177.473,142.279 177.737,142.279C178.038,142.279 178.188,142.402 178.188,142.648C178.188,142.748 178.161,142.812 178.106,142.839C178.033,142.885 177.997,142.962 177.997,143.072C177.997,143.163 178.07,143.209 178.216,143.209C178.671,143.209 179.241,143.117 179.925,142.935C180.617,142.744 181.091,142.648 181.347,142.648C181.556,142.648 181.697,142.844 181.77,143.236C181.962,144.275 182.058,144.863 182.058,145C182.058,145.127 181.998,145.25 181.88,145.369C181.77,145.478 181.451,145.701 180.923,146.039C180.403,146.376 179.92,146.704 179.474,147.023C179.027,147.333 178.448,147.77 177.737,148.335C178.229,148.563 178.585,148.819 178.804,149.101C179.031,149.384 179.227,149.817 179.391,150.4L182.809,147.72L182.809,148.636L179.364,151.412C179.273,152.287 178.968,153.175 178.448,154.078C177.938,154.98 177.341,155.791 176.657,156.511C175.974,157.231 175.294,157.819 174.62,158.275C173.946,158.74 173.453,158.972 173.143,158.972C172.843,158.972 172.633,158.872 172.515,158.671C172.396,158.48 172.337,158.197 172.337,157.824C172.337,157.286 172.455,156.776 172.692,156.293C172.92,155.809 173.257,155.326 173.704,154.843C174.141,154.369 174.67,153.882 175.29,153.38C175.919,152.888 176.753,152.287 177.792,151.576C177.692,150.929 177.523,150.528 177.286,150.373C177.049,150.209 176.684,150.049 176.192,149.894C175.709,149.73 175.468,149.488 175.468,149.169C175.468,148.814 177.177,147.451 180.595,145.082C180.048,145.191 179.405,145.314 178.667,145.451C177.929,145.578 177.227,145.669 176.561,145.724C176.097,146.462 175.655,147.11 175.235,147.666C174.816,148.222 174.456,148.65 174.155,148.951L174.155,148.951ZM177.655,152.861C176.999,153.317 176.365,153.827 175.755,154.392C175.144,154.966 174.615,155.509 174.169,156.019C173.731,156.53 173.513,156.839 173.513,156.949C173.513,157.158 173.604,157.263 173.786,157.263C174.114,157.263 174.538,157.081 175.057,156.716C175.577,156.352 176.083,155.828 176.575,155.144C177.067,154.47 177.427,153.709 177.655,152.861L177.655,152.861Z" style="fill:white;fill-rule:nonzero;"/>
        <path id="text13" d="M106.484,156.368C105.911,157.006 105.625,157.451 105.625,157.701C105.625,157.841 105.682,157.911 105.796,157.911C105.89,157.911 106.012,157.862 106.162,157.765C106.315,157.664 106.552,157.486 106.875,157.233L106.875,157.569C106.412,158.025 106.058,158.354 105.81,158.556C105.563,158.758 105.361,158.858 105.205,158.858C104.938,158.858 104.804,158.683 104.804,158.331C104.804,158.227 104.821,158.124 104.853,158.024C104.886,157.923 104.93,157.818 104.985,157.711C105.044,157.6 105.132,157.444 105.249,157.242C105.366,157.037 105.501,156.806 105.654,156.549C105.468,156.643 105.236,156.83 104.956,157.11C104.774,157.286 104.619,157.454 104.492,157.613C104.365,157.77 104.228,157.945 104.082,158.141C103.939,158.333 103.833,158.463 103.764,158.531C103.699,158.596 103.633,158.629 103.564,158.629C103.46,158.629 103.364,158.52 103.276,158.302C103.188,158.084 103.144,157.83 103.144,157.54C103.144,157.361 103.164,157.221 103.203,157.12C103.245,157.019 103.327,156.876 103.447,156.691C103.672,156.345 103.865,156.093 104.028,155.934C104.191,155.771 104.347,155.69 104.497,155.69C104.601,155.69 104.684,155.707 104.746,155.743C104.811,155.779 104.843,155.834 104.843,155.909C104.843,155.942 104.834,155.976 104.814,156.012C104.795,156.048 104.772,156.08 104.746,156.109C104.723,156.139 104.673,156.196 104.594,156.28C104.08,156.85 103.823,157.219 103.823,157.389C103.823,157.483 103.854,157.53 103.916,157.53C103.955,157.53 104.03,157.468 104.14,157.345C104.254,157.218 104.399,157.053 104.575,156.852C104.754,156.647 104.964,156.433 105.205,156.212C105.449,155.991 105.726,155.777 106.035,155.572C106.207,155.452 106.351,155.392 106.465,155.392C106.517,155.392 106.567,155.463 106.616,155.606C106.668,155.75 106.694,155.895 106.694,156.041C106.694,156.113 106.624,156.222 106.484,156.368L106.484,156.368ZM105.483,166.151L105.693,166.151C105.866,165.842 106.022,165.624 106.162,165.497C106.302,165.366 106.461,165.301 106.64,165.301C106.819,165.301 106.909,165.342 106.909,165.423C106.909,165.462 106.839,165.568 106.699,165.741C106.559,165.913 106.453,166.058 106.382,166.175C106.492,166.188 106.59,166.2 106.675,166.21C106.762,166.219 106.831,166.228 106.88,166.234C106.694,166.579 106.461,166.932 106.181,167.294C106.09,167.287 106.014,167.282 105.952,167.279C105.89,167.272 105.827,167.267 105.761,167.264C105.7,167.258 105.623,167.251 105.532,167.244C105.356,167.528 105.208,167.782 105.088,168.006C104.97,168.228 104.879,168.431 104.814,168.617C104.752,168.802 104.721,168.978 104.721,169.144C104.721,169.368 104.811,169.481 104.99,169.481C105.114,169.481 105.275,169.416 105.473,169.285C105.675,169.152 105.944,168.949 106.279,168.675L106.279,169.002C105.4,169.956 104.751,170.433 104.331,170.433C104.184,170.433 104.065,170.376 103.974,170.262C103.886,170.148 103.842,170.002 103.842,169.823C103.842,169.702 103.867,169.559 103.916,169.393C103.968,169.227 104.059,168.976 104.189,168.641C104.144,168.68 104.1,168.719 104.057,168.758C104.018,168.794 103.981,168.828 103.945,168.861C103.912,168.89 103.877,168.923 103.838,168.958C103.799,168.991 103.759,169.025 103.72,169.061L103.72,168.724C104.062,168.437 104.476,167.935 104.961,167.215C104.912,167.212 104.866,167.21 104.824,167.21C104.782,167.207 104.731,167.206 104.673,167.206C104.48,167.206 104.337,167.219 104.243,167.245C104.204,167.254 104.166,167.266 104.131,167.279C104.098,167.289 104.075,167.293 104.062,167.293C104.049,167.293 104.043,167.284 104.043,167.264C104.043,167.157 104.109,166.996 104.243,166.781C104.35,166.599 104.451,166.463 104.546,166.376C104.643,166.288 104.76,166.229 104.897,166.2C105.037,166.167 105.232,166.151 105.483,166.151L105.483,166.151Z" style="fill:white;fill-rule:nonzero;"/>
        <path id="text14" d="M108.013,100.693L108.013,101.02C107.665,101.362 107.38,101.627 107.159,101.816C106.941,102.005 106.736,102.151 106.544,102.255C106.355,102.36 106.169,102.412 105.987,102.412C105.808,102.412 105.644,102.342 105.494,102.202C105.344,102.059 105.227,101.873 105.142,101.645C105.058,101.414 105.015,101.17 105.015,100.913C105.015,100.691 105.064,100.494 105.162,100.322C105.26,100.149 105.448,99.926 105.728,99.653C106.06,99.327 106.368,99.077 106.651,98.901C106.938,98.722 107.162,98.632 107.325,98.632C107.442,98.632 107.541,98.673 107.623,98.754C107.704,98.836 107.745,98.938 107.745,99.062C107.745,99.166 107.691,99.314 107.584,99.506C107.476,99.698 107.356,99.866 107.222,100.009C107.089,100.149 106.983,100.219 106.905,100.219C106.82,100.219 106.778,100.174 106.778,100.083C106.781,100.057 106.783,100.032 106.783,100.009C106.786,99.987 106.788,99.964 106.788,99.941C106.788,99.902 106.773,99.881 106.744,99.878C106.718,99.871 106.685,99.882 106.646,99.912C106.321,100.14 106.098,100.301 105.977,100.395C105.857,100.486 105.761,100.579 105.689,100.673C105.621,100.768 105.587,100.867 105.587,100.971C105.587,101.163 105.648,101.32 105.772,101.44C105.896,101.56 106.057,101.621 106.256,101.621C106.461,101.621 106.706,101.543 106.993,101.386C107.283,101.227 107.623,100.996 108.013,100.693L108.013,100.693ZM107.723,111.784L107.723,112.146C107.043,113.047 106.489,113.498 106.063,113.498C105.832,113.498 105.649,113.373 105.516,113.122C105.386,112.868 105.321,112.536 105.321,112.126C105.321,111.794 105.399,111.4 105.555,110.944C105.711,110.485 105.92,110.022 106.18,109.553C106.444,109.081 106.715,108.671 106.995,108.322C107.279,107.971 107.541,107.725 107.782,107.585C107.879,107.526 107.956,107.497 108.011,107.497C108.079,107.497 108.125,107.528 108.148,107.59C108.171,107.649 108.182,107.751 108.182,107.898C108.182,108.35 107.998,108.907 107.63,109.567C107.262,110.225 106.75,110.897 106.092,111.584C106.06,111.753 106.043,111.884 106.043,111.975C106.043,112.183 106.087,112.352 106.175,112.483C106.266,112.613 106.392,112.678 106.551,112.678C106.632,112.678 106.72,112.647 106.815,112.585C106.909,112.52 107.008,112.44 107.113,112.346C107.217,112.251 107.42,112.064 107.723,111.784L107.723,111.784ZM106.263,110.905C106.432,110.739 106.595,110.551 106.751,110.339C106.911,110.127 107.06,109.901 107.2,109.66C107.34,109.419 107.449,109.203 107.528,109.011C107.609,108.819 107.65,108.674 107.65,108.576C107.65,108.501 107.624,108.464 107.572,108.464C107.552,108.464 107.515,108.482 107.459,108.518C107.261,108.68 107.038,108.999 106.79,109.475C106.543,109.947 106.367,110.424 106.263,110.905L106.263,110.905ZM105.855,124.189L105.855,124.311C105.855,124.503 105.902,124.653 105.997,124.76C106.091,124.868 106.215,124.921 106.368,124.921C106.527,124.921 106.692,124.884 106.861,124.809C107.034,124.734 107.205,124.635 107.374,124.511C107.543,124.388 107.75,124.222 107.994,124.013L107.994,124.311C107.626,124.754 107.281,125.094 106.959,125.332C106.636,125.566 106.309,125.683 105.977,125.683C105.688,125.683 105.458,125.571 105.289,125.346C105.12,125.122 105.035,124.814 105.035,124.423C105.035,124.082 105.115,123.772 105.274,123.496C105.434,123.216 105.694,122.921 106.055,122.612C106.303,122.4 106.549,122.241 106.793,122.133C107.037,122.026 107.255,121.972 107.447,121.972C107.6,121.972 107.72,122.008 107.808,122.08C107.9,122.148 107.945,122.252 107.945,122.392C107.945,122.597 107.869,122.802 107.716,123.007C107.563,123.209 107.328,123.411 107.012,123.613C106.7,123.811 106.314,124.004 105.855,124.189L105.855,124.189ZM105.904,123.872C106.197,123.758 106.448,123.616 106.656,123.447C106.864,123.278 107.017,123.116 107.115,122.963C107.216,122.807 107.266,122.693 107.266,122.622C107.266,122.547 107.232,122.509 107.164,122.509C107.105,122.509 107.009,122.547 106.876,122.622C106.746,122.697 106.612,122.794 106.475,122.915C106.342,123.035 106.221,123.177 106.114,123.339C106.007,123.502 105.937,123.68 105.904,123.872L105.904,123.872ZM107.266,121.113C107.211,121.113 107.161,121.095 107.115,121.059C107.069,121.02 107.047,120.978 107.047,120.932C107.047,120.812 107.216,120.504 107.554,120.009C107.701,119.804 107.823,119.669 107.921,119.604C108.022,119.536 108.163,119.502 108.345,119.502C108.586,119.502 108.707,119.585 108.707,119.751C108.707,119.845 108.601,120.001 108.389,120.219C108.181,120.437 107.956,120.641 107.716,120.83C107.478,121.019 107.328,121.113 107.266,121.113L107.266,121.113ZM106.007,138.344C106.456,137.947 106.842,137.602 107.164,137.309C107.486,137.013 107.738,136.78 107.921,136.611C108.106,136.442 108.269,136.298 108.409,136.181C108.549,136.064 108.638,136.005 108.678,136.005C108.752,136.002 108.824,136.08 108.892,136.24C108.961,136.396 108.995,136.521 108.995,136.616C108.995,136.678 108.891,136.824 108.682,137.055C108.477,137.283 108.323,137.465 108.219,137.602C108.118,137.739 108.067,137.882 108.067,138.032C108.067,138.12 108.096,138.191 108.155,138.247C108.214,138.299 108.284,138.325 108.365,138.325C108.459,138.325 108.572,138.276 108.702,138.178C108.835,138.081 109.044,137.907 109.327,137.656L109.327,138.003C109.044,138.269 108.787,138.501 108.555,138.696C108.324,138.888 108.123,139.033 107.95,139.13C107.781,139.225 107.639,139.272 107.525,139.272C107.424,139.272 107.34,139.235 107.271,139.16C107.203,139.082 107.169,138.986 107.169,138.872C107.169,138.761 107.188,138.649 107.227,138.535C107.266,138.421 107.327,138.286 107.408,138.129C107.489,137.973 107.597,137.786 107.73,137.568C107.864,137.347 107.986,137.145 108.096,136.962C107.764,137.233 107.47,137.493 107.213,137.744C106.956,137.994 106.746,138.214 106.583,138.403C106.42,138.588 106.291,138.735 106.197,138.842C106.015,139.044 105.845,139.145 105.689,139.145C105.52,139.145 105.435,139.025 105.435,138.784C105.435,138.686 105.499,138.512 105.626,138.261C105.753,138.007 105.933,137.685 106.168,137.295C106.187,137.268 106.197,137.228 106.197,137.172C106.197,137.107 106.164,137.075 106.099,137.075C106.028,137.075 105.924,137.143 105.787,137.28C105.653,137.413 105.393,137.695 105.006,138.125C104.898,138.245 104.776,138.403 104.639,138.598C104.506,138.79 104.41,138.919 104.351,138.984C104.293,139.049 104.234,139.082 104.176,139.082C104.058,139.082 103.949,138.977 103.848,138.769C103.748,138.561 103.697,138.318 103.697,138.042C103.697,137.84 103.73,137.666 103.795,137.519C103.863,137.373 103.967,137.19 104.107,136.972C104.325,136.657 104.503,136.432 104.639,136.298C104.779,136.162 104.926,136.093 105.079,136.093C105.173,136.093 105.253,136.113 105.318,136.152C105.383,136.188 105.416,136.238 105.416,136.303C105.416,136.372 105.356,136.484 105.235,136.64C105.118,136.796 104.968,136.958 104.786,137.124C104.688,137.218 104.595,137.335 104.508,137.475C104.42,137.612 104.376,137.711 104.376,137.773C104.376,137.861 104.41,137.905 104.478,137.905C104.534,137.905 104.674,137.791 104.898,137.563C105.123,137.335 105.369,137.088 105.635,136.821C105.906,136.551 106.155,136.328 106.383,136.152C106.614,135.973 106.809,135.883 106.969,135.883C107.066,135.883 107.146,135.921 107.208,135.996C107.273,136.067 107.305,136.157 107.305,136.264C107.305,136.336 107.257,136.466 107.159,136.655C107.061,136.84 106.918,137.072 106.729,137.348C106.544,137.622 106.303,137.954 106.007,138.344L106.007,138.344Z" style="fill:white;fill-rule:nonzero;"/>
        <path id="text15" d="M176.973,161.931C176.892,161.931 176.814,161.9 176.739,161.839C176.667,161.777 176.631,161.699 176.631,161.604C176.631,161.461 176.7,161.301 176.836,161.126C176.973,160.95 177.115,160.862 177.261,160.862C177.359,160.862 177.44,160.893 177.505,160.955C177.571,161.013 177.603,161.1 177.603,161.214C177.603,161.354 177.536,161.508 177.403,161.677C177.269,161.847 177.126,161.931 176.973,161.931L176.973,161.931ZM177.305,164.114L177.305,164.47C176.989,164.877 176.695,165.185 176.421,165.393C176.148,165.598 175.915,165.701 175.723,165.701C175.456,165.701 175.258,165.561 175.127,165.281C174.997,165.001 174.932,164.695 174.932,164.363C174.932,164.236 174.945,164.116 174.971,164.002C174.997,163.884 175.028,163.788 175.064,163.714C175.1,163.639 175.167,163.522 175.264,163.362C175.726,162.643 176.15,162.283 176.534,162.283C176.732,162.283 176.832,162.359 176.832,162.512C176.832,162.617 176.766,162.779 176.636,163.001C176.509,163.222 176.395,163.38 176.294,163.474C176.011,163.748 175.826,163.938 175.738,164.046C175.653,164.153 175.611,164.275 175.611,164.412C175.611,164.529 175.655,164.627 175.743,164.705C175.831,164.783 175.945,164.822 176.084,164.822C176.237,164.822 176.405,164.767 176.587,164.656C176.773,164.542 177.012,164.361 177.305,164.114L177.305,164.114ZM176.492,176.109L175.623,176.846C175.21,177.207 174.933,177.388 174.793,177.388C174.666,177.388 174.533,177.243 174.393,176.953C174.253,176.66 174.183,176.405 174.183,176.187C174.183,176.001 174.21,175.845 174.266,175.718C174.324,175.588 174.424,175.42 174.563,175.215C174.762,174.938 174.952,174.704 175.135,174.512C175.317,174.32 175.478,174.172 175.618,174.068C175.758,173.96 175.856,173.906 175.911,173.906C175.999,173.906 176.084,173.952 176.165,174.043C176.25,174.134 176.292,174.229 176.292,174.326C176.292,174.388 176.246,174.488 176.155,174.624C176.067,174.761 175.926,174.935 175.73,175.147C175.538,175.355 175.27,175.606 174.925,175.899L174.832,176.167C174.806,176.219 174.793,176.265 174.793,176.304C174.793,176.392 174.837,176.436 174.925,176.436C175.016,176.436 175.229,176.32 175.564,176.089C175.903,175.858 176.269,175.547 176.663,175.156C176.816,175.003 176.943,174.868 177.044,174.751C177.145,174.634 177.236,174.525 177.317,174.424C177.399,174.32 177.465,174.242 177.518,174.19C177.573,174.138 177.622,174.11 177.664,174.107C177.745,174.097 177.809,174.131 177.855,174.209C177.9,174.287 177.923,174.403 177.923,174.556C177.923,174.644 177.884,174.754 177.806,174.888C177.728,175.018 177.581,175.243 177.366,175.562C177.151,175.877 176.937,176.206 176.722,176.548C176.51,176.887 176.294,177.269 176.072,177.696C176.082,177.686 176.181,177.588 176.37,177.403C176.562,177.217 176.764,177.023 176.976,176.821C177.187,176.62 177.361,176.459 177.498,176.338C177.635,176.214 177.806,176.071 178.011,175.908L178.011,176.236C177.571,176.708 177.173,177.155 176.814,177.578C176.46,178.002 176.185,178.34 175.989,178.594C175.797,178.848 175.685,178.996 175.652,179.038C175.564,179.152 175.485,179.258 175.413,179.356C175.345,179.457 175.286,179.533 175.237,179.585C175.192,179.641 175.154,179.668 175.125,179.668C175.057,179.668 174.995,179.6 174.939,179.463C174.887,179.33 174.861,179.211 174.861,179.107C174.861,179.012 174.879,178.929 174.915,178.858C175.149,178.33 175.675,177.414 176.492,176.109L176.492,176.109ZM174.659,188.25C175.154,187.8 175.634,187.467 176.099,187.249C176.565,187.031 176.924,186.922 177.178,186.922C177.247,186.922 177.31,186.951 177.369,187.009C177.427,187.065 177.473,187.13 177.505,187.205C177.541,187.28 177.559,187.335 177.559,187.371C177.559,187.429 177.536,187.473 177.491,187.503C177.445,187.529 177.365,187.561 177.251,187.6C177.274,187.652 177.304,187.719 177.339,187.801C177.375,187.882 177.403,187.949 177.422,188.001C177.442,188.05 177.452,188.093 177.452,188.133C177.452,188.211 177.372,188.357 177.212,188.572C177.056,188.784 176.946,188.94 176.88,189.041C176.819,189.142 176.788,189.265 176.788,189.412C176.788,189.653 176.898,189.773 177.12,189.773C177.348,189.773 177.704,189.56 178.189,189.134L178.189,189.431C177.365,190.346 176.776,190.803 176.421,190.803C176.294,190.803 176.203,190.761 176.148,190.676C176.096,190.595 176.07,190.473 176.07,190.31C176.07,190.053 176.163,189.68 176.348,189.192C175.873,189.719 175.52,190.095 175.289,190.32C175.058,190.541 174.867,190.652 174.717,190.652C174.646,190.652 174.556,190.59 174.449,190.467C174.341,190.343 174.245,190.183 174.161,189.988C174.079,189.789 174.039,189.584 174.039,189.373C174.039,189.22 174.053,189.093 174.083,188.992C174.112,188.888 174.169,188.782 174.253,188.675C174.338,188.567 174.473,188.425 174.659,188.25L174.659,188.25ZM176.998,187.713C176.151,188.1 175.547,188.429 175.186,188.699C174.828,188.969 174.649,189.247 174.649,189.534C174.649,189.638 174.667,189.724 174.703,189.793C174.738,189.858 174.787,189.89 174.849,189.89C174.885,189.89 174.948,189.868 175.04,189.822C175.381,189.62 175.694,189.358 175.977,189.036C176.26,188.71 176.6,188.269 176.998,187.713L176.998,187.713ZM176.263,200.369C175.976,200.694 175.719,200.971 175.491,201.199C175.267,201.427 175.083,201.598 174.939,201.712C174.8,201.822 174.703,201.878 174.651,201.878C174.567,201.878 174.471,201.809 174.363,201.673C174.259,201.536 174.17,201.362 174.095,201.15C174.02,200.939 173.982,200.724 173.982,200.506C173.982,200.19 174.135,199.872 174.441,199.553C174.747,199.231 175.096,198.964 175.486,198.753C175.877,198.541 176.17,198.435 176.365,198.435C176.525,198.435 176.681,198.536 176.834,198.738C177.085,198.214 177.322,197.748 177.547,197.342C177.775,196.935 177.965,196.632 178.118,196.433C178.271,196.235 178.38,196.135 178.445,196.135C178.517,196.135 178.582,196.171 178.641,196.243C178.702,196.311 178.733,196.389 178.733,196.477C178.733,196.647 178.61,196.938 178.362,197.351C178.115,197.761 177.871,198.162 177.63,198.552C177.389,198.943 177.182,199.329 177.01,199.71C176.837,200.087 176.751,200.437 176.751,200.759C176.751,201.052 176.845,201.199 177.034,201.199C177.148,201.199 177.291,201.135 177.464,201.008C177.636,200.878 177.882,200.662 178.201,200.359L178.201,200.716C177.498,201.624 176.956,202.078 176.575,202.078C176.422,202.078 176.312,202.019 176.243,201.902C176.178,201.785 176.146,201.611 176.146,201.38C176.146,201.067 176.185,200.73 176.263,200.369L176.263,200.369ZM176.624,199.177C176.334,199.275 175.994,199.433 175.604,199.651C175.213,199.866 174.977,200.014 174.896,200.095C174.824,200.161 174.76,200.283 174.705,200.462C174.65,200.641 174.622,200.776 174.622,200.867C174.622,200.922 174.638,200.968 174.671,201.004C174.704,201.039 174.744,201.057 174.793,201.057C174.839,201.057 174.891,201.038 174.949,200.999C175.008,200.96 175.101,200.883 175.228,200.769C175.358,200.655 175.442,200.582 175.481,200.549C175.537,200.501 175.659,200.396 175.848,200.237C176.04,200.074 176.18,199.947 176.268,199.856C176.356,199.765 176.43,199.664 176.492,199.553C176.554,199.439 176.598,199.314 176.624,199.177L176.624,199.177Z" style="fill:white;fill-rule:nonzero;"/>
        <path id="text16" d="M124.09,158.451L124.09,158.573C124.09,158.766 124.137,158.915 124.231,159.023C124.326,159.13 124.449,159.184 124.602,159.184C124.762,159.184 124.926,159.146 125.095,159.071C125.268,158.997 125.439,158.897 125.608,158.774C125.777,158.65 125.984,158.484 126.228,158.276L126.228,158.573C125.86,159.016 125.515,159.356 125.193,159.594C124.871,159.828 124.544,159.946 124.212,159.946C123.922,159.946 123.692,159.833 123.523,159.609C123.354,159.384 123.269,159.076 123.269,158.686C123.269,158.344 123.349,158.035 123.508,157.758C123.668,157.478 123.928,157.183 124.29,156.874C124.537,156.663 124.783,156.503 125.027,156.396C125.271,156.288 125.489,156.235 125.681,156.235C125.834,156.235 125.955,156.27 126.043,156.342C126.134,156.41 126.179,156.515 126.179,156.655C126.179,156.86 126.103,157.065 125.95,157.27C125.797,157.472 125.562,157.673 125.247,157.875C124.934,158.074 124.548,158.266 124.09,158.451L124.09,158.451ZM124.138,158.134C124.431,158.02 124.682,157.878 124.89,157.709C125.099,157.54 125.252,157.379 125.349,157.226C125.45,157.07 125.501,156.956 125.501,156.884C125.501,156.809 125.467,156.772 125.398,156.772C125.34,156.772 125.244,156.809 125.11,156.884C124.98,156.959 124.846,157.057 124.71,157.177C124.576,157.297 124.456,157.439 124.348,157.602C124.241,157.765 124.171,157.942 124.138,158.134L124.138,158.134ZM125.501,155.375C125.445,155.375 125.395,155.357 125.349,155.322C125.304,155.282 125.281,155.24 125.281,155.195C125.281,155.074 125.45,154.766 125.789,154.272C125.935,154.067 126.057,153.932 126.155,153.866C126.256,153.798 126.397,153.764 126.58,153.764C126.821,153.764 126.941,153.847 126.941,154.013C126.941,154.107 126.835,154.264 126.624,154.482C126.415,154.7 126.191,154.903 125.95,155.092C125.712,155.281 125.563,155.375 125.501,155.375L125.501,155.375ZM124.241,172.607C124.69,172.21 125.076,171.864 125.398,171.572C125.72,171.275 125.973,171.043 126.155,170.873C126.341,170.704 126.503,170.561 126.643,170.444C126.783,170.326 126.873,170.268 126.912,170.268C126.987,170.265 127.058,170.343 127.127,170.502C127.195,170.658 127.229,170.784 127.229,170.878C127.229,170.94 127.125,171.087 126.917,171.318C126.712,171.545 126.557,171.728 126.453,171.864C126.352,172.001 126.301,172.144 126.301,172.294C126.301,172.382 126.331,172.454 126.389,172.509C126.448,172.561 126.518,172.587 126.599,172.587C126.694,172.587 126.806,172.538 126.936,172.441C127.07,172.343 127.278,172.169 127.561,171.918L127.561,172.265C127.278,172.532 127.021,172.763 126.79,172.958C126.559,173.15 126.357,173.295 126.184,173.393C126.015,173.487 125.873,173.534 125.759,173.534C125.659,173.534 125.574,173.497 125.506,173.422C125.437,173.344 125.403,173.248 125.403,173.134C125.403,173.023 125.423,172.911 125.462,172.797C125.501,172.683 125.561,172.548 125.642,172.392C125.724,172.236 125.831,172.048 125.965,171.83C126.098,171.609 126.22,171.407 126.331,171.225C125.999,171.495 125.704,171.755 125.447,172.006C125.19,172.257 124.98,172.476 124.817,172.665C124.654,172.851 124.526,172.997 124.431,173.105C124.249,173.307 124.08,173.407 123.924,173.407C123.754,173.407 123.67,173.287 123.67,173.046C123.67,172.948 123.733,172.774 123.86,172.524C123.987,172.27 124.168,171.947 124.402,171.557C124.422,171.531 124.431,171.49 124.431,171.435C124.431,171.37 124.399,171.337 124.334,171.337C124.262,171.337 124.158,171.405 124.021,171.542C123.888,171.676 123.627,171.957 123.24,172.387C123.133,172.507 123.01,172.665 122.874,172.861C122.74,173.053 122.644,173.181 122.586,173.246C122.527,173.311 122.468,173.344 122.41,173.344C122.293,173.344 122.184,173.24 122.083,173.031C121.982,172.823 121.931,172.581 121.931,172.304C121.931,172.102 121.964,171.928 122.029,171.781C122.097,171.635 122.202,171.453 122.342,171.235C122.56,170.919 122.737,170.694 122.874,170.561C123.014,170.424 123.16,170.356 123.313,170.356C123.408,170.356 123.487,170.375 123.553,170.414C123.618,170.45 123.65,170.501 123.65,170.566C123.65,170.634 123.59,170.746 123.469,170.903C123.352,171.059 123.203,171.22 123.02,171.386C122.923,171.48 122.83,171.598 122.742,171.738C122.654,171.874 122.61,171.974 122.61,172.035C122.61,172.123 122.644,172.167 122.713,172.167C122.768,172.167 122.908,172.053 123.133,171.825C123.357,171.598 123.603,171.35 123.87,171.083C124.14,170.813 124.389,170.59 124.617,170.414C124.848,170.235 125.043,170.146 125.203,170.146C125.301,170.146 125.38,170.183 125.442,170.258C125.507,170.33 125.54,170.419 125.54,170.527C125.54,170.598 125.491,170.728 125.393,170.917C125.296,171.103 125.152,171.334 124.964,171.611C124.778,171.884 124.537,172.216 124.241,172.607L124.241,172.607ZM125.625,181.296C125.544,181.296 125.466,181.265 125.391,181.203C125.319,181.141 125.283,181.063 125.283,180.969C125.283,180.825 125.352,180.666 125.488,180.49C125.625,180.314 125.767,180.226 125.913,180.226C126.011,180.226 126.092,180.257 126.157,180.319C126.223,180.378 126.255,180.464 126.255,180.578C126.255,180.718 126.188,180.872 126.055,181.042C125.921,181.211 125.778,181.296 125.625,181.296L125.625,181.296ZM125.957,183.478L125.957,183.835C125.641,184.242 125.347,184.549 125.073,184.758C124.8,184.963 124.567,185.065 124.375,185.065C124.108,185.065 123.91,184.925 123.779,184.645C123.649,184.365 123.584,184.059 123.584,183.727C123.584,183.6 123.597,183.48 123.623,183.366C123.649,183.249 123.68,183.153 123.716,183.078C123.752,183.003 123.819,182.886 123.916,182.726C124.378,182.007 124.802,181.647 125.186,181.647C125.384,181.647 125.484,181.724 125.484,181.877C125.484,181.981 125.418,182.144 125.288,182.365C125.161,182.586 125.047,182.744 124.946,182.839C124.663,183.112 124.478,183.302 124.39,183.41C124.305,183.517 124.263,183.639 124.263,183.776C124.263,183.893 124.307,183.991 124.395,184.069C124.483,184.147 124.597,184.186 124.737,184.186C124.89,184.186 125.057,184.131 125.239,184.02C125.425,183.906 125.664,183.726 125.957,183.478L125.957,183.478ZM124.09,196.484L124.09,196.606C124.09,196.798 124.137,196.948 124.231,197.055C124.326,197.162 124.449,197.216 124.602,197.216C124.762,197.216 124.926,197.179 125.095,197.104C125.268,197.029 125.439,196.93 125.608,196.806C125.777,196.682 125.984,196.516 126.228,196.308L126.228,196.606C125.86,197.048 125.515,197.389 125.193,197.626C124.871,197.861 124.544,197.978 124.212,197.978C123.922,197.978 123.692,197.865 123.523,197.641C123.354,197.416 123.269,197.109 123.269,196.718C123.269,196.376 123.349,196.067 123.508,195.79C123.668,195.51 123.928,195.216 124.29,194.906C124.537,194.695 124.783,194.535 125.027,194.428C125.271,194.321 125.489,194.267 125.681,194.267C125.834,194.267 125.955,194.303 126.043,194.374C126.134,194.443 126.179,194.547 126.179,194.687C126.179,194.892 126.103,195.097 125.95,195.302C125.797,195.504 125.563,195.706 125.247,195.907C124.934,196.106 124.549,196.298 124.09,196.484L124.09,196.484ZM124.138,196.166C124.431,196.052 124.682,195.911 124.89,195.741C125.099,195.572 125.252,195.411 125.349,195.258C125.45,195.102 125.501,194.988 125.501,194.916C125.501,194.841 125.467,194.804 125.398,194.804C125.34,194.804 125.244,194.841 125.11,194.916C124.98,194.991 124.846,195.089 124.71,195.209C124.576,195.33 124.456,195.471 124.348,195.634C124.241,195.797 124.171,195.974 124.138,196.166L124.138,196.166Z" style="fill:white;fill-rule:nonzero;"/>
        <path id="text17" d="M166.326,158.549C166.821,158.1 167.301,157.766 167.767,157.548C168.232,157.33 168.592,157.221 168.846,157.221C168.914,157.221 168.978,157.25 169.036,157.309C169.095,157.364 169.141,157.429 169.173,157.504C169.209,157.579 169.227,157.634 169.227,157.67C169.227,157.729 169.204,157.773 169.159,157.802C169.113,157.828 169.033,157.86 168.919,157.899C168.942,157.952 168.971,158.018 169.007,158.1C169.043,158.181 169.071,158.248 169.09,158.3C169.11,158.349 169.119,158.393 169.119,158.432C169.119,158.51 169.04,158.656 168.88,158.871C168.724,159.083 168.613,159.239 168.548,159.34C168.486,159.441 168.455,159.564 168.455,159.711C168.455,159.952 168.566,160.072 168.787,160.072C169.015,160.072 169.372,159.859 169.857,159.433L169.857,159.731C169.033,160.645 168.444,161.103 168.089,161.103C167.962,161.103 167.871,161.06 167.816,160.976C167.764,160.894 167.738,160.772 167.738,160.609C167.738,160.352 167.83,159.98 168.016,159.491C167.541,160.019 167.188,160.395 166.956,160.619C166.725,160.841 166.535,160.951 166.385,160.951C166.313,160.951 166.224,160.889 166.117,160.766C166.009,160.642 165.913,160.482 165.828,160.287C165.747,160.089 165.706,159.883 165.706,159.672C165.706,159.519 165.721,159.392 165.75,159.291C165.78,159.187 165.837,159.081 165.921,158.974C166.006,158.866 166.141,158.725 166.327,158.549L166.326,158.549ZM168.665,158.012C167.819,158.399 167.215,158.728 166.854,158.998C166.496,159.268 166.317,159.547 166.317,159.833C166.317,159.937 166.335,160.023 166.37,160.092C166.406,160.157 166.455,160.189 166.517,160.189C166.553,160.189 166.616,160.167 166.707,160.121C167.049,159.919 167.362,159.657 167.645,159.335C167.928,159.009 168.268,158.568 168.665,158.012L168.665,158.012ZM167.257,172.604C167.706,172.207 168.092,171.862 168.414,171.569C168.736,171.273 168.988,171.04 169.171,170.871C169.356,170.701 169.519,170.558 169.659,170.441C169.799,170.324 169.889,170.265 169.928,170.265C170.002,170.262 170.074,170.34 170.142,170.5C170.211,170.656 170.245,170.781 170.245,170.876C170.245,170.937 170.141,171.084 169.932,171.315C169.727,171.543 169.573,171.725 169.469,171.862C169.368,171.999 169.317,172.142 169.317,172.292C169.317,172.379 169.346,172.451 169.405,172.506C169.464,172.558 169.534,172.585 169.615,172.585C169.709,172.585 169.822,172.536 169.952,172.438C170.085,172.34 170.294,172.166 170.577,171.916L170.577,172.262C170.294,172.529 170.037,172.76 169.805,172.956C169.574,173.148 169.373,173.293 169.2,173.39C169.031,173.485 168.889,173.532 168.775,173.532C168.674,173.532 168.59,173.494 168.521,173.419C168.453,173.341 168.419,173.245 168.419,173.131C168.419,173.021 168.438,172.908 168.477,172.794C168.516,172.681 168.577,172.545 168.658,172.389C168.739,172.233 168.847,172.046 168.98,171.828C169.114,171.606 169.236,171.404 169.347,171.222C169.014,171.492 168.72,171.753 168.463,172.003C168.206,172.254 167.996,172.474 167.833,172.663C167.67,172.848 167.541,172.995 167.447,173.102C167.265,173.304 167.096,173.405 166.939,173.405C166.77,173.405 166.685,173.284 166.685,173.043C166.685,172.946 166.749,172.772 166.876,172.521C167.003,172.267 167.183,171.945 167.418,171.554C167.437,171.528 167.447,171.487 167.447,171.432C167.447,171.367 167.415,171.335 167.349,171.335C167.278,171.335 167.174,171.403 167.037,171.54C166.904,171.673 166.643,171.955 166.256,172.384C166.148,172.505 166.026,172.663 165.89,172.858C165.756,173.05 165.66,173.179 165.601,173.244C165.543,173.309 165.484,173.341 165.426,173.341C165.308,173.341 165.199,173.237 165.098,173.029C164.998,172.821 164.947,172.578 164.947,172.301C164.947,172.099 164.98,171.925 165.045,171.779C165.113,171.632 165.217,171.45 165.357,171.232C165.575,170.916 165.753,170.692 165.89,170.558C166.029,170.421 166.176,170.353 166.329,170.353C166.423,170.353 166.503,170.373 166.568,170.412C166.633,170.447 166.666,170.498 166.666,170.563C166.666,170.631 166.606,170.744 166.485,170.9C166.368,171.056 166.218,171.217 166.036,171.383C165.938,171.478 165.846,171.595 165.758,171.735C165.67,171.872 165.626,171.971 165.626,172.033C165.626,172.121 165.66,172.165 165.728,172.165C165.784,172.165 165.924,172.051 166.148,171.823C166.373,171.595 166.619,171.348 166.886,171.081C167.156,170.81 167.405,170.587 167.633,170.412C167.864,170.233 168.059,170.143 168.219,170.143C168.316,170.143 168.396,170.181 168.458,170.255C168.523,170.327 168.555,170.417 168.555,170.524C168.555,170.596 168.507,170.726 168.409,170.915C168.311,171.1 168.168,171.331 167.979,171.608C167.794,171.881 167.553,172.213 167.257,172.604L167.257,172.604Z" style="fill:white;fill-rule:nonzero;"/>
        <path id="text18" d="M160.928,111.358L160.928,111.685C160.563,112.111 160.257,112.435 160.01,112.657C159.763,112.875 159.556,112.984 159.39,112.984C159.23,112.984 159.085,112.937 158.955,112.842C158.828,112.748 158.713,112.618 158.609,112.452C158.508,112.286 158.387,112.054 158.247,111.758C158.081,111.963 157.931,112.155 157.798,112.334C157.665,112.51 157.572,112.627 157.52,112.686C157.468,112.745 157.42,112.774 157.378,112.774C157.29,112.774 157.227,112.719 157.188,112.608C157.149,112.494 157.129,112.33 157.129,112.115C157.129,111.822 157.163,111.54 157.232,111.27C157.303,110.996 157.404,110.731 157.534,110.474C157.668,110.217 157.837,109.94 158.042,109.644C158.25,109.344 158.483,109.032 158.74,108.706C159.095,108.257 159.401,107.891 159.658,107.608C159.916,107.321 160.138,107.107 160.327,106.963C160.519,106.817 160.679,106.744 160.806,106.744C160.962,106.744 161.04,106.814 161.04,106.954C161.04,107.074 160.752,107.509 160.176,108.257C159.6,109.003 158.76,110.022 157.656,111.314L157.656,111.734C158.395,110.943 158.989,110.355 159.439,109.971C159.891,109.587 160.241,109.395 160.488,109.395C160.589,109.395 160.667,109.455 160.723,109.576C160.778,109.693 160.806,109.83 160.806,109.986C160.806,110.305 160.669,110.601 160.396,110.874C160.122,111.145 159.702,111.455 159.136,111.807C159.234,111.954 159.32,112.061 159.395,112.129C159.47,112.194 159.564,112.227 159.678,112.227C159.779,112.227 159.888,112.193 160.005,112.124C160.122,112.056 160.241,111.97 160.361,111.866C160.485,111.761 160.674,111.592 160.928,111.358L160.928,111.358ZM158.999,111.607C159.123,111.525 159.276,111.4 159.458,111.231C159.644,111.058 159.802,110.881 159.932,110.699C160.062,110.513 160.127,110.358 160.127,110.235C160.127,110.183 160.104,110.157 160.059,110.157C159.935,110.157 159.722,110.275 159.419,110.513C159.12,110.751 158.827,111.055 158.54,111.426C158.664,111.426 158.817,111.486 158.999,111.607L158.999,111.607ZM157.615,123.929C158.11,123.479 158.59,123.146 159.055,122.928C159.521,122.71 159.881,122.6 160.134,122.6C160.203,122.6 160.266,122.63 160.325,122.688C160.383,122.744 160.429,122.809 160.462,122.884C160.497,122.959 160.515,123.014 160.515,123.05C160.515,123.108 160.493,123.152 160.447,123.182C160.401,123.208 160.322,123.24 160.208,123.279C160.23,123.331 160.26,123.398 160.296,123.479C160.331,123.561 160.359,123.628 160.379,123.68C160.398,123.728 160.408,123.772 160.408,123.811C160.408,123.89 160.328,124.036 160.169,124.251C160.012,124.462 159.902,124.619 159.837,124.72C159.775,124.821 159.744,124.944 159.744,125.091C159.744,125.332 159.854,125.452 160.076,125.452C160.304,125.452 160.66,125.239 161.145,124.812L161.145,125.11C160.322,126.025 159.732,126.482 159.378,126.482C159.251,126.482 159.16,126.44 159.104,126.355C159.052,126.274 159.026,126.152 159.026,125.989C159.026,125.732 159.119,125.359 159.304,124.871C158.829,125.398 158.476,125.774 158.245,125.999C158.014,126.22 157.823,126.331 157.674,126.331C157.602,126.331 157.512,126.269 157.405,126.145C157.298,126.022 157.202,125.862 157.117,125.667C157.036,125.468 156.995,125.263 156.995,125.052C156.995,124.899 157.009,124.772 157.039,124.671C157.068,124.567 157.125,124.461 157.21,124.353C157.294,124.246 157.429,124.104 157.615,123.929L157.615,123.929ZM159.954,123.392C159.107,123.779 158.504,124.108 158.142,124.378C157.784,124.648 157.605,124.926 157.605,125.213C157.605,125.317 157.623,125.403 157.659,125.472C157.695,125.537 157.744,125.569 157.805,125.569C157.841,125.569 157.905,125.546 157.996,125.501C158.338,125.299 158.65,125.037 158.933,124.715C159.216,124.389 159.557,123.948 159.954,123.392L159.954,123.392ZM159.448,136.319L158.579,137.056C158.166,137.417 157.889,137.598 157.749,137.598C157.622,137.598 157.489,137.453 157.349,137.163C157.209,136.871 157.139,136.615 157.139,136.397C157.139,136.211 157.166,136.055 157.222,135.928C157.28,135.798 157.38,135.63 157.52,135.425C157.718,135.149 157.909,134.914 158.091,134.722C158.273,134.53 158.434,134.382 158.574,134.278C158.714,134.17 158.812,134.117 158.867,134.117C158.955,134.117 159.04,134.162 159.121,134.253C159.206,134.344 159.248,134.439 159.248,134.537C159.248,134.598 159.203,134.698 159.111,134.834C159.024,134.971 158.882,135.145 158.687,135.357C158.495,135.565 158.226,135.816 157.881,136.109L157.788,136.377C157.762,136.429 157.749,136.475 157.749,136.514C157.749,136.602 157.793,136.646 157.881,136.646C157.972,136.646 158.185,136.53 158.521,136.299C158.859,136.068 159.225,135.757 159.619,135.367C159.772,135.214 159.899,135.079 160,134.961C160.101,134.844 160.192,134.735 160.274,134.634C160.355,134.53 160.422,134.452 160.474,134.4C160.529,134.348 160.578,134.32 160.62,134.317C160.702,134.307 160.765,134.341 160.811,134.419C160.856,134.497 160.879,134.613 160.879,134.766C160.879,134.854 160.84,134.965 160.762,135.098C160.684,135.228 160.537,135.453 160.322,135.772C160.108,136.088 159.893,136.416 159.678,136.758C159.466,137.097 159.25,137.479 159.028,137.906C159.038,137.896 159.138,137.798 159.326,137.613C159.518,137.427 159.72,137.233 159.932,137.032C160.143,136.83 160.318,136.669 160.454,136.548C160.591,136.425 160.762,136.281 160.967,136.119L160.967,136.446C160.528,136.918 160.129,137.365 159.771,137.789C159.416,138.212 159.141,138.55 158.945,138.804C158.753,139.058 158.641,139.206 158.609,139.248C158.521,139.362 158.441,139.468 158.369,139.566C158.301,139.667 158.242,139.743 158.194,139.795C158.148,139.851 158.111,139.878 158.081,139.878C158.013,139.878 157.951,139.81 157.896,139.673C157.844,139.54 157.818,139.421 157.818,139.317C157.818,139.222 157.835,139.139 157.871,139.068C158.106,138.54 158.631,137.624 159.448,136.319L159.448,136.319Z" style="fill:white;fill-rule:nonzero;"/>
        <path id="text19" d="M148.579,124.921C149.074,124.472 149.554,124.138 150.02,123.92C150.485,123.702 150.845,123.593 151.099,123.593C151.167,123.593 151.231,123.622 151.289,123.681C151.348,123.736 151.393,123.802 151.426,123.876C151.462,123.951 151.48,124.007 151.48,124.042C151.48,124.101 151.457,124.145 151.411,124.174C151.366,124.2 151.286,124.233 151.172,124.272C151.195,124.324 151.224,124.391 151.26,124.472C151.296,124.553 151.323,124.62 151.343,124.672C151.362,124.721 151.372,124.765 151.372,124.804C151.372,124.882 151.292,125.029 151.133,125.244C150.977,125.455 150.866,125.611 150.801,125.712C150.739,125.813 150.708,125.937 150.708,126.083C150.708,126.324 150.819,126.445 151.04,126.445C151.268,126.445 151.624,126.232 152.109,125.805L152.109,126.103C151.286,127.018 150.697,127.475 150.342,127.475C150.215,127.475 150.124,127.433 150.068,127.348C150.016,127.267 149.99,127.145 149.99,126.982C149.99,126.725 150.083,126.352 150.269,125.864C149.793,126.391 149.44,126.767 149.209,126.992C148.978,127.213 148.787,127.324 148.638,127.324C148.566,127.324 148.477,127.262 148.369,127.138C148.262,127.014 148.166,126.855 148.081,126.66C148,126.461 147.959,126.256 147.959,126.044C147.959,125.891 147.974,125.764 148.003,125.663C148.032,125.559 148.089,125.454 148.174,125.346C148.259,125.239 148.394,125.097 148.579,124.921L148.579,124.921ZM150.918,124.384C150.072,124.772 149.468,125.1 149.106,125.371C148.748,125.641 148.569,125.919 148.569,126.206C148.569,126.31 148.587,126.396 148.623,126.464C148.659,126.529 148.708,126.562 148.77,126.562C148.805,126.562 148.869,126.539 148.96,126.494C149.302,126.292 149.614,126.03 149.898,125.707C150.181,125.382 150.521,124.941 150.918,124.384L150.918,124.384ZM151.226,136.948L151.226,137.309C150.545,138.211 149.992,138.662 149.565,138.662C149.334,138.662 149.152,138.536 149.019,138.286C148.888,138.032 148.823,137.7 148.823,137.289C148.823,136.957 148.901,136.564 149.058,136.108C149.214,135.649 149.422,135.185 149.683,134.716C149.946,134.244 150.218,133.834 150.498,133.486C150.781,133.134 151.043,132.888 151.284,132.748C151.382,132.69 151.458,132.661 151.514,132.661C151.582,132.661 151.628,132.692 151.65,132.753C151.673,132.812 151.685,132.914 151.685,133.061C151.685,133.513 151.501,134.07 151.133,134.731C150.765,135.388 150.252,136.061 149.595,136.747C149.562,136.917 149.546,137.047 149.546,137.138C149.546,137.346 149.59,137.516 149.678,137.646C149.769,137.776 149.894,137.841 150.054,137.841C150.135,137.841 150.223,137.81 150.317,137.748C150.412,137.683 150.511,137.604 150.615,137.509C150.719,137.415 150.923,137.228 151.226,136.948ZM149.766,136.069C149.935,135.903 150.098,135.714 150.254,135.502C150.413,135.291 150.563,135.065 150.703,134.824C150.843,134.583 150.952,134.366 151.03,134.174C151.112,133.982 151.152,133.837 151.152,133.74C151.152,133.665 151.126,133.627 151.074,133.627C151.055,133.627 151.017,133.645 150.962,133.681C150.763,133.844 150.54,134.163 150.293,134.638C150.046,135.11 149.87,135.587 149.766,136.069L149.766,136.069Z" style="fill:white;fill-rule:nonzero;"/>
        <path id="text20" d="M148.078,158.595L148.078,157.442C147.957,157.472 147.842,157.524 147.731,157.598C147.624,157.673 147.508,157.766 147.384,157.877C147.264,157.987 147.189,158.043 147.16,158.043C147.124,158.043 147.106,157.996 147.106,157.901C147.106,157.807 147.202,157.641 147.394,157.403C147.589,157.162 147.804,156.941 148.039,156.739C148.273,156.534 148.442,156.432 148.546,156.432C148.608,156.432 148.662,156.467 148.708,156.539C148.753,156.611 148.776,156.708 148.776,156.832C148.776,156.913 148.774,156.988 148.771,157.057C148.768,157.125 148.765,157.216 148.761,157.33C148.758,157.444 148.753,157.608 148.747,157.823C149.466,157.055 149.893,156.671 150.026,156.671C150.065,156.671 150.096,156.687 150.119,156.72C150.145,156.749 150.158,156.786 150.158,156.832C150.158,156.939 150.07,157.105 149.894,157.33C149.722,157.551 149.606,157.662 149.548,157.662C149.466,157.662 149.403,157.649 149.357,157.623L148.737,158.414C148.743,158.7 148.768,158.914 148.81,159.054C148.856,159.194 148.936,159.264 149.049,159.264C149.147,159.264 149.261,159.215 149.391,159.117C149.521,159.019 149.733,158.839 150.026,158.575L150.026,158.912C149.359,159.833 148.887,160.294 148.61,160.294C148.437,160.294 148.314,160.203 148.239,160.02C148.167,159.838 148.12,159.558 148.097,159.181C147.983,159.298 147.85,159.439 147.697,159.605C147.544,159.771 147.432,159.89 147.36,159.962C147.292,160.03 147.228,160.087 147.17,160.133C147.114,160.178 147.064,160.201 147.018,160.201C146.973,160.201 146.95,160.162 146.95,160.084C146.95,159.954 147.018,159.775 147.155,159.547C147.295,159.319 147.396,159.205 147.458,159.205C147.464,159.205 147.479,159.208 147.502,159.215C147.524,159.221 147.536,159.224 147.536,159.224L148.078,158.595Z" style="fill:white;fill-rule:nonzero;"/>
        <path id="text21" d="M92.146,131.333C92.641,130.883 93.121,130.55 93.587,130.332C94.052,130.114 94.412,130.004 94.666,130.004C94.734,130.004 94.798,130.034 94.856,130.092C94.915,130.148 94.96,130.213 94.993,130.288C95.029,130.363 95.047,130.418 95.047,130.454C95.047,130.512 95.024,130.556 94.978,130.586C94.933,130.612 94.853,130.644 94.739,130.683C94.762,130.735 94.791,130.802 94.827,130.883C94.863,130.965 94.89,131.031 94.91,131.084C94.929,131.132 94.939,131.176 94.939,131.215C94.939,131.294 94.859,131.44 94.7,131.655C94.544,131.866 94.433,132.023 94.368,132.124C94.306,132.225 94.275,132.348 94.275,132.495C94.275,132.736 94.386,132.856 94.607,132.856C94.835,132.856 95.192,132.643 95.677,132.216L95.677,132.514C94.853,133.429 94.264,133.886 93.909,133.886C93.782,133.886 93.691,133.844 93.636,133.759C93.583,133.678 93.557,133.556 93.557,133.393C93.557,133.136 93.65,132.763 93.836,132.275C93.36,132.802 93.007,133.178 92.776,133.403C92.545,133.624 92.355,133.735 92.205,133.735C92.133,133.735 92.044,133.673 91.936,133.549C91.829,133.426 91.733,133.266 91.648,133.071C91.567,132.872 91.526,132.667 91.526,132.456C91.526,132.303 91.541,132.176 91.57,132.075C91.599,131.971 91.656,131.865 91.741,131.757C91.826,131.65 91.961,131.508 92.146,131.333L92.146,131.333ZM94.485,130.795C93.639,131.183 93.035,131.512 92.674,131.782C92.316,132.052 92.136,132.33 92.136,132.617C92.136,132.721 92.154,132.807 92.19,132.876C92.226,132.941 92.275,132.973 92.337,132.973C92.373,132.973 92.436,132.95 92.527,132.905C92.869,132.703 93.181,132.441 93.465,132.119C93.748,131.793 94.088,131.352 94.485,130.795L94.485,130.795Z" style="fill:white;fill-rule:nonzero;"/>
        <path id="text22" d="M91.03,157.618L90.943,158.028C90.93,158.08 90.923,158.139 90.923,158.204C90.923,158.379 90.996,158.467 91.143,158.467C91.283,158.467 91.623,158.194 92.163,157.647C92.166,157.435 92.245,157.191 92.398,156.915C92.554,156.638 92.725,156.395 92.91,156.187C93.099,155.979 93.239,155.875 93.33,155.875C93.473,155.875 93.545,155.969 93.545,156.158C93.545,156.272 93.517,156.412 93.462,156.578C93.407,156.74 93.325,156.918 93.218,157.11C93.111,157.299 92.979,157.494 92.822,157.696C92.904,157.842 92.987,157.916 93.071,157.916C93.143,157.916 93.221,157.891 93.306,157.842C93.394,157.79 93.503,157.712 93.633,157.608L93.633,157.935C93.451,158.078 93.306,158.176 93.198,158.228C93.094,158.28 92.959,158.306 92.793,158.306C92.728,158.306 92.611,158.262 92.442,158.174C92.11,158.526 91.839,158.79 91.631,158.965C91.423,159.138 91.253,159.224 91.123,159.224C90.899,159.224 90.707,159.091 90.547,158.824C90.391,158.554 90.313,158.257 90.313,157.935C90.313,157.502 90.557,156.983 91.045,156.377C91.192,156.195 91.309,156.071 91.397,156.006C91.488,155.938 91.59,155.904 91.704,155.904C91.802,155.904 91.895,155.922 91.983,155.958C92.07,155.993 92.114,156.036 92.114,156.085C92.114,156.247 92.005,156.487 91.787,156.802C91.569,157.115 91.317,157.387 91.03,157.618L91.03,157.618ZM90.549,168.733C91.044,168.284 91.524,167.951 91.99,167.732C92.455,167.514 92.815,167.405 93.069,167.405C93.137,167.405 93.201,167.435 93.259,167.493C93.318,167.549 93.364,167.614 93.396,167.689C93.432,167.763 93.45,167.819 93.45,167.855C93.45,167.913 93.427,167.957 93.382,167.986C93.336,168.012 93.256,168.045 93.142,168.084C93.165,168.136 93.194,168.203 93.23,168.284C93.266,168.366 93.294,168.432 93.313,168.484C93.333,168.533 93.342,168.577 93.342,168.616C93.342,168.694 93.263,168.841 93.103,169.056C92.947,169.267 92.836,169.424 92.771,169.524C92.709,169.625 92.678,169.749 92.678,169.896C92.678,170.136 92.789,170.257 93.01,170.257C93.238,170.257 93.595,170.044 94.08,169.617L94.08,169.915C93.256,170.83 92.667,171.287 92.312,171.287C92.185,171.287 92.094,171.245 92.039,171.16C91.987,171.079 91.961,170.957 91.961,170.794C91.961,170.537 92.053,170.164 92.239,169.676C91.764,170.203 91.411,170.579 91.179,170.804C90.948,171.025 90.758,171.136 90.608,171.136C90.536,171.136 90.447,171.074 90.34,170.95C90.232,170.827 90.136,170.667 90.051,170.472C89.97,170.273 89.929,170.068 89.929,169.856C89.929,169.703 89.944,169.577 89.973,169.476C90.003,169.371 90.06,169.266 90.144,169.158C90.229,169.051 90.364,168.909 90.55,168.733L90.549,168.733ZM92.888,168.196C92.042,168.584 91.438,168.912 91.077,169.183C90.719,169.453 90.54,169.731 90.54,170.018C90.54,170.122 90.558,170.208 90.593,170.276C90.629,170.342 90.678,170.374 90.74,170.374C90.776,170.374 90.839,170.351 90.93,170.306C91.272,170.104 91.585,169.842 91.868,169.52C92.151,169.194 92.491,168.753 92.888,168.196L92.888,168.196ZM90.498,182.369L90.498,182.051C90.674,181.843 90.807,181.666 90.899,181.519C90.794,181.483 90.718,181.439 90.669,181.387C90.624,181.335 90.601,181.257 90.601,181.153C90.601,181.036 90.65,180.888 90.747,180.709C90.845,180.53 90.965,180.362 91.109,180.206C91.252,180.049 91.382,179.948 91.499,179.903C91.545,179.88 91.589,179.869 91.631,179.869C91.696,179.869 91.729,179.9 91.729,179.961C91.729,180.017 91.678,180.129 91.577,180.298C92.248,180.194 92.671,180.142 92.847,180.142C92.915,180.142 92.962,180.149 92.988,180.162C93.044,180.191 93.089,180.259 93.125,180.367C93.161,180.474 93.179,180.582 93.179,180.689C93.179,180.757 93.148,180.832 93.086,180.914C93.027,180.992 92.925,181.107 92.778,181.26C92.606,181.446 92.461,181.648 92.344,181.866C92.227,182.084 92.168,182.248 92.168,182.359C92.168,182.512 92.263,182.588 92.451,182.588C92.65,182.588 92.995,182.387 93.487,181.983L93.487,182.31C93.216,182.593 92.993,182.816 92.818,182.979C92.642,183.142 92.479,183.272 92.329,183.37C92.18,183.464 92.046,183.511 91.929,183.511C91.792,183.511 91.678,183.449 91.587,183.326C91.496,183.199 91.45,183.017 91.45,182.779C91.45,182.639 91.486,182.479 91.558,182.3C91.629,182.121 91.734,181.928 91.87,181.719C92.01,181.508 92.167,181.298 92.339,181.089C92.248,181.109 92.145,181.13 92.031,181.153C91.918,181.172 91.797,181.194 91.67,181.216C91.543,181.239 91.445,181.257 91.377,181.27C91.175,181.674 90.882,182.04 90.498,182.369L90.498,182.369ZM93.582,194.315L93.582,194.642C93.367,194.837 93.194,194.967 93.064,195.032C92.934,195.097 92.747,195.123 92.503,195.11C92.079,195.612 91.707,195.862 91.384,195.862C91.202,195.862 91.036,195.802 90.886,195.682C90.737,195.561 90.616,195.397 90.525,195.189C90.437,194.98 90.393,194.747 90.393,194.49C90.393,194.282 90.462,194.051 90.598,193.797C90.738,193.543 90.917,193.307 91.135,193.089C91.357,192.868 91.593,192.69 91.843,192.557C92.094,192.42 92.327,192.352 92.542,192.352C92.695,192.352 92.815,192.376 92.903,192.425C92.991,192.47 93.035,192.536 93.035,192.62C93.035,192.685 92.997,192.76 92.923,192.845C93.046,192.871 93.131,192.915 93.176,192.977C93.222,193.035 93.245,193.144 93.245,193.304C93.245,193.46 93.207,193.657 93.133,193.895C93.061,194.132 92.962,194.355 92.835,194.564L92.923,194.651L92.996,194.651C93.051,194.651 93.105,194.638 93.157,194.612C93.212,194.583 93.261,194.554 93.303,194.524C93.346,194.492 93.439,194.422 93.582,194.315L93.582,194.315ZM92.576,193.03C92.306,193.193 92.075,193.341 91.883,193.475C91.69,193.605 91.528,193.738 91.394,193.875C91.261,194.009 91.171,194.144 91.126,194.28C91.044,194.645 91.004,194.842 91.004,194.871C91.004,195.086 91.153,195.193 91.453,195.193C91.593,195.193 91.827,195.073 92.156,194.832C92.101,194.679 92.073,194.533 92.073,194.393C92.073,194.188 92.115,193.979 92.2,193.768C92.285,193.553 92.41,193.307 92.576,193.03L92.576,193.03Z" style="fill:white;fill-rule:nonzero;"/>
        <path id="text23" d="M126.774,135.59C126.201,136.228 125.915,136.673 125.915,136.923C125.915,137.063 125.971,137.133 126.085,137.133C126.18,137.133 126.302,137.084 126.452,136.987C126.605,136.886 126.842,136.708 127.165,136.454L127.165,136.791C126.702,137.247 126.347,137.576 126.1,137.778C125.853,137.979 125.651,138.08 125.495,138.08C125.228,138.08 125.094,137.905 125.094,137.553C125.094,137.449 125.11,137.346 125.143,137.245C125.176,137.145 125.22,137.04 125.275,136.933C125.333,136.822 125.421,136.666 125.539,136.464C125.656,136.259 125.791,136.028 125.944,135.771C125.758,135.865 125.526,136.052 125.246,136.332C125.063,136.508 124.909,136.676 124.782,136.835C124.655,136.992 124.518,137.167 124.372,137.363C124.228,137.555 124.123,137.685 124.054,137.753C123.989,137.818 123.922,137.851 123.854,137.851C123.75,137.851 123.654,137.742 123.566,137.524C123.478,137.306 123.434,137.052 123.434,136.762C123.434,136.583 123.454,136.443 123.493,136.342C123.535,136.241 123.616,136.098 123.737,135.912C123.961,135.567 124.155,135.315 124.318,135.156C124.481,134.993 124.637,134.911 124.787,134.911C124.891,134.911 124.974,134.929 125.036,134.965C125.101,135.001 125.133,135.056 125.133,135.131C125.133,135.164 125.124,135.198 125.104,135.234C125.084,135.27 125.062,135.302 125.036,135.331C125.013,135.361 124.962,135.418 124.884,135.502C124.37,136.072 124.113,136.441 124.113,136.611C124.113,136.705 124.144,136.752 124.206,136.752C124.245,136.752 124.319,136.69 124.43,136.567C124.544,136.44 124.689,136.275 124.865,136.074C125.044,135.868 125.254,135.655 125.495,135.434C125.739,135.213 126.015,134.999 126.325,134.794C126.497,134.674 126.64,134.614 126.754,134.614C126.806,134.614 126.857,134.685 126.906,134.828C126.958,134.972 126.984,135.117 126.984,135.263C126.984,135.335 126.914,135.444 126.774,135.59L126.774,135.59Z" style="fill:white;fill-rule:nonzero;"/>
    </g>
</svg>
